<?xml version="1.0" standalone="no"?>
<!DOCTYPE svg PUBLIC "-//W3C//DTD SVG 1.1//EN" "http://www.w3.org/Graphics/SVG/1.1/DTD/svg11.dtd" >
<svg xmlns="http://www.w3.org/2000/svg">
<metadata>
Created by FontPrep 20130207 at Mon Mar 23 10:16:21 2015
 By Miles Ryan
(C)2000 House Industries/Brand Design Co., Inc.
</metadata>
<defs>
<font id="10b6b529907c5142cee9278071c700a9" horiz-adv-x='1024' >
  <font-face 
    font-family="Chalet-ParisNineteenSixty"
    font-weight="400"
    font-stretch="normal"
    units-per-em="2048"
    panose-1="2 0 0 0 0 0 0 0 0 0"
    ascent="1638"
    descent="-410"
    x-height="1055"
    cap-height="1421"
    bbox="-49 -516.007 2337 1886"
    underline-thickness="16"
    underline-position="-104"
    unicode-range="U+0020-FB02"
  />
<missing-glyph horiz-adv-x="1024" 
 />
    <glyph glyph-name="ffl" unicode="ffl" horiz-adv-x="1452" 
d="M242 979v-979h-78v979h-144v76h144v73q0 178 96 278t264 85v-70q-143 9 -213 -71t-69 -228v-67h452v73q0 178 96 278t265 85v-70q-143 9 -213 -71t-70 -228v-67h283v-76h-283v-979h-78v979h-452zM1296 1524v-1524h-75v1524h75z" />
    <glyph glyph-name="ffi" unicode="ffi" horiz-adv-x="1441" 
d="M242 979v-979h-78v979h-144v76h144v73q0 178 96 278t264 85v-70q-143 9 -213 -71t-69 -228v-67h452v73q0 178 96 278t265 85v-70q-143 9 -213 -71t-70 -228v-67h514v-1055h-76v979h-438v-979h-78v979h-452zM1286 1421v-188h-76v188h76z" />
    <glyph glyph-name="ff" unicode="ff" horiz-adv-x="1060" 
d="M242 979v-979h-78v979h-144v76h144v73q0 178 96 278t264 85v-70q-143 9 -213 -71t-69 -228v-67h452v73q0 178 96 278t265 85v-70q-143 9 -213 -71t-70 -228v-67h283v-76h-283v-979h-78v979h-452z" />
    <glyph glyph-name="fi" unicode="fi" horiz-adv-x="911" 
d="M680 979h-438v-979h-78v979h-144v76h144v73q0 178 96 278t264 85v-70q-143 9 -213 -71t-69 -228v-67h514v-1055h-76v979zM756 1421v-188h-76v188h76z" />
    <glyph glyph-name="fl" unicode="fl" horiz-adv-x="921" 
d="M524 979h-282v-979h-78v979h-144v76h144v73q0 178 96 278t264 85v-70q-143 9 -213 -71t-69 -228v-67h282v-76zM766 1524v-1524h-76v1524h76z" />
    <glyph glyph-name=".notdef" horiz-adv-x="1024" 
 />
    <glyph glyph-name=".notdef" horiz-adv-x="1024" 
 />
    <glyph glyph-name=".null" horiz-adv-x="0" 
 />
    <glyph glyph-name="nonmarkingreturn" horiz-adv-x="681" 
 />
    <glyph glyph-name="space" unicode=" " horiz-adv-x="604" 
 />
    <glyph glyph-name="exclam" unicode="!" horiz-adv-x="421" 
d="M174 0v190h76v-190h-76zM174 367v1054h76v-1054h-76z" />
    <glyph glyph-name="quotedbl" unicode="&#x22;" horiz-adv-x="477" 
d="M182 1421v-366h-76v366h76zM373 1421v-366h-76v366h76z" />
    <glyph glyph-name="numbersign" unicode="#" horiz-adv-x="1058" 
d="M721 909h-322l-57 -395h320zM797 909l-58 -395h217l-12 -76h-217l-51 -362h-78l53 362h-319l-53 -362h-78l53 362h-217l12 76h215l58 395h-216l11 76h217l53 361h76l-53 -361h321l51 361h78l-53 -361h217l-10 -76h-217z" />
    <glyph glyph-name="dollar" unicode="$" horiz-adv-x="997" 
d="M852 422q0 112 -71 168t-251 96v-524q138 10 230 78q92 70 92 182zM168 1024q0 -98 68 -152t223 -94v482q-125 -8 -208 -73t-83 -163zM530 -59h-71v151q-180 8 -291 116t-107 269h76q0 -143 93 -225t229 -90v540q-174 37 -271 109q-96 72 -96 204t100 220t267 96v160h71
v-160q170 -10 266 -109t97 -245h-76q0 125 -80 199t-207 84v-496q193 -41 283 -102q115 -82 115 -231t-110 -239t-288 -100v-151z" />
    <glyph glyph-name="percent" unicode="%" horiz-adv-x="1570" 
d="M1203 104q99 0 169 70t70 170t-70 170t-169 70t-169 -70t-70 -170t70 -170t169 -70zM369 838q98 0 168 70t69 169q0 100 -69 171q-70 71 -168 71t-168 -71t-70 -171q0 -99 70 -169t168 -70zM1203 659q130 0 222 -92q93 -92 93 -223t-92 -222t-223 -91q-130 0 -222 91
t-92 222t92 223t222 92zM1219 1421l-781 -1421h-86l778 1421h89zM55 1077q-1 131 91 223t222 93q130 -1 223 -93t93 -222t-93 -222t-223 -92t-222 91q-91 91 -91 222z" />
    <glyph glyph-name="ampersand" unicode="&#x26;" horiz-adv-x="1269" 
d="M147 375q0 -129 115 -229t277 -101q262 0 387 213l-449 537q-182 -103 -256 -197t-74 -223zM770 1184q0 82 -59 143t-153 61t-158 -62t-64 -156t84 -195l76 -90q152 85 213 151t61 148zM66 373q0 161 93 269t273 208l-65 78q-109 126 -109 246t87 202t212 82t209 -81
t84 -190t-77 -191t-230 -167l418 -499q41 100 40 221v117h76v-117q0 -158 -61 -287l221 -264h-94l-166 197q-69 -107 -183 -165t-255 -59q-195 0 -334 120t-139 280z" />
    <glyph glyph-name="quotesingle" unicode="'" horiz-adv-x="284" 
d="M182 1421v-366h-76v366h76z" />
    <glyph glyph-name="parenleft" unicode="(" horiz-adv-x="450" 
d="M172 666q0 -522 309 -928h-84q-309 408 -309 928t309 927h84q-309 -405 -309 -927z" />
    <glyph glyph-name="parenright" unicode=")" horiz-adv-x="450" 
d="M362 666q0 -524 -309 -928h-82q309 406 309 928t-309 927h82q309 -403 309 -927z" />
    <glyph glyph-name="asterisk" unicode="*" horiz-adv-x="681" 
d="M639 1112l-242 2l123 -207l-59 -35l-119 209l-119 -209l-59 35l123 207l-242 -2v68l242 -2l-123 208l59 33l119 -209l119 209l59 -33l-123 -208l242 4v-70z" />
    <glyph glyph-name="plus" unicode="+" horiz-adv-x="962" 
d="M893 528h-373v-374h-76v374h-372v74h372v373h76v-373h373v-74z" />
    <glyph glyph-name="comma" unicode="," 
d="M125 190h74v-225q0 -80 -48 -125t-114 -45v70q88 4 88 100v225z" />
    <glyph glyph-name="hyphen" unicode="-" horiz-adv-x="616" 
d="M528 604v-76h-440v76h440z" />
    <glyph glyph-name="hyphen" unicode="&#xad;" horiz-adv-x="616" 
d="M528 604v-76h-440v76h440z" />
    <glyph glyph-name="period" unicode="." 
d="M199 190v-190h-76v190h76z" />
    <glyph glyph-name="slash" unicode="/" horiz-adv-x="548" 
d="M20 0l433 1524h77l-430 -1524h-80z" />
    <glyph glyph-name="zero" unicode="0" horiz-adv-x="1126" 
d="M564 47q198 0 308 174t111 480q0 307 -111 481q-110 174 -308 174t-308 -174t-111 -482q1 -308 111 -480q110 -173 308 -173zM565 1427q203 0 348 -178t146 -549q0 -193 -43 -338t-116 -227t-157 -122t-178 -40t-179 40q-316 149 -316 687q0 193 43 338q76 257 273 350
q85 39 179 39z" />
    <glyph glyph-name="one" unicode="1" horiz-adv-x="649" 
d="M395 1421v-1421h-76v1208h-208v62q205 6 219 151h65z" />
    <glyph glyph-name="two" unicode="2" horiz-adv-x="1083" 
d="M109 958q0 199 121 334q122 135 336 135q214 -1 326 -113t112 -270t-98 -264t-324 -228t-319 -223t-103 -253h844v-76h-922v39q0 220 134 352q68 68 136 114t174 103q231 125 317 214q85 88 85 218t-88 222t-266 92t-283 -110q-104 -110 -107 -286h-75z" />
    <glyph glyph-name="three" unicode="3" horiz-adv-x="1105" 
d="M1024 389q0 -166 -125 -290t-352 -124t-351 115t-130 324h75q16 -367 402 -367q197 0 301 101q104 100 104 242t-92 229t-283 88h-120v73h96q174 0 268 90q76 70 76 202t-90 208t-248 76t-261 -90t-106 -254h-75q0 174 115 295q116 121 327 121t312 -105
q101 -103 101 -237t-58 -217q-60 -83 -162 -119q276 -76 276 -361z" />
    <glyph glyph-name="four" unicode="4" horiz-adv-x="1095" 
d="M758 440v854l-608 -854h608zM836 365v-365h-78v365h-701v75l701 981h78v-981h198v-75h-198z" />
    <glyph glyph-name="five" unicode="5" horiz-adv-x="1062" 
d="M545 911q197 0 325 -132t127 -336q0 -203 -132 -335t-333 -132q-202 0 -328 109q-126 110 -141 286h78q13 -143 117 -233t274 -89q170 0 280 111q110 110 110 284t-104 284t-273 110q-105 0 -199 -52t-156 -141l-69 27l96 749h711v-75h-643l-74 -576q61 66 151 104
t183 37z" />
    <glyph glyph-name="six" unicode="6" horiz-adv-x="1071" 
d="M188 439q0 -163 109 -277t275 -113t272 111t106 285t-102 285t-268 110t-279 -119t-113 -282zM1026 444q0 -207 -127 -338t-331 -131t-346 159q-142 158 -142 516t133 568t375 209q164 0 272 -92t139 -254h-75q-29 129 -116 201t-220 72q-205 0 -319 -194t-115 -546
q51 131 169 215t257 84q198 0 322 -131t124 -338z" />
    <glyph glyph-name="seven" unicode="7" horiz-adv-x="1071" 
d="M1014 1421v-84q-260 -223 -424 -575t-199 -762h-78q41 465 234 848q160 319 373 498h-857v75h951z" />
    <glyph glyph-name="eight" unicode="8" horiz-adv-x="1083" 
d="M545 49q175 -1 287 95t112 244t-111 243q-112 94 -289 94t-289 -94q-112 -95 -112 -243t114 -244t288 -95zM205 1075q1 -121 97 -199t242 -77q146 0 242 79q96 78 96 198t-96 199t-242 79t-242 -79t-97 -200zM1020 387q0 -178 -135 -296t-341 -118t-341 118t-135 296
q0 137 80 237q81 99 219 140q-109 39 -173 122t-65 189q0 154 117 253t298 99t298 -99t116 -253q0 -106 -64 -189t-173 -122q137 -40 218 -140t81 -237z" />
    <glyph glyph-name="nine" unicode="9" horiz-adv-x="1085" 
d="M897 964q0 162 -104 276q-105 114 -273 114t-273 -111t-105 -285t108 -284t278 -111q170 0 270 119q99 119 99 282zM696 1394q314 -130 314 -644t-224 -685q-68 -53 -131 -71t-137 -19q-172 0 -286 88t-140 252h78q23 -127 115 -197t223 -69q131 -1 217 61
q146 105 193 407q18 124 16 274q-37 -131 -144 -217q-108 -85 -262 -85q-202 1 -332 133t-130 338t127 336q127 131 327 131q94 0 176 -33z" />
    <glyph glyph-name="colon" unicode=":" horiz-adv-x="321" 
d="M201 190v-190h-76v190h76zM201 981v-188h-76v188h76z" />
    <glyph glyph-name="semicolon" unicode=";" horiz-adv-x="321" 
d="M125 190h74v-225q0 -80 -48 -125t-114 -45v70q88 4 88 100v225zM201 981v-188h-76v188h76z" />
    <glyph glyph-name="semicolon" unicode="&#x37e;" horiz-adv-x="321" 
d="M125 190h74v-225q0 -80 -48 -125t-114 -45v70q88 4 88 100v225zM201 981v-188h-76v188h76z" />
    <glyph glyph-name="less" unicode="&#x3c;" horiz-adv-x="962" 
d="M170 567v-4l707 -317v-82l-795 358v84l795 361v-82z" />
    <glyph glyph-name="equal" unicode="=" horiz-adv-x="919" 
d="M834 436v-74h-744v74h744zM834 768v-74h-744v74h744z" />
    <glyph glyph-name="greater" unicode="&#x3e;" horiz-adv-x="962" 
d="M797 563v4l-707 318v82l795 -361v-84l-795 -358v82z" />
    <glyph glyph-name="question" unicode="?" horiz-adv-x="995" 
d="M430 0v190h76v-190h-76zM506 383v-16h-76v16q0 158 79 252q42 49 72 76q29 27 91 73t94 75q32 30 60 87q30 57 30 129q0 141 -95 227t-260 84q-165 0 -263 -89t-109 -242h-78q12 186 132 294q120 107 318 107q197 0 315 -104t118 -267t-99 -257q-39 -38 -55 -49t-74 -55
t-97 -81t-71 -107t-32 -153z" />
    <glyph glyph-name="at" unicode="@" horiz-adv-x="1517" 
d="M840 1073q-127 0 -240 -100q-113 -99 -155 -249q-41 -150 13 -258t170 -108t214 96t144 245q78 253 -32 340q-44 34 -114 34zM795 -27q-299 0 -510 217q-211 218 -211 524t213 524t514 218q253 0 450 -152q97 -75 155 -200t58 -283q0 -217 -121 -389t-272 -172
q-76 0 -119 48t-37 132q-123 -154 -285 -154t-236 138q-74 137 -24 312t182 292t284 117q90 0 152 -46t83 -132l45 143h78l-190 -614q-25 -82 -6 -125t75 -43q119 0 217 154t98 316q1 306 -182 449q-184 142 -405 142q-271 0 -461 -200t-190 -475t189 -472t456 -197
q341 0 536 262h92q-104 -160 -266 -247t-362 -87z" />
    <glyph glyph-name="A" unicode="A" horiz-adv-x="1193" 
d="M885 565l-289 752l-287 -752h576zM913 489h-632l-189 -489h-82l545 1421h84l545 -1421h-82z" />
    <glyph glyph-name="B" unicode="B" horiz-adv-x="1282" 
d="M788 76q136 0 236 82t100 233q0 152 -90 235t-252 83h-534v-633h540zM248 1346v-564h534q123 0 212 73t89 208t-81 209t-226 74h-528zM1200 393q0 -173 -115 -283t-297 -110h-616v1421h604q178 0 280 -95t103 -261q0 -111 -53 -193t-148 -122q242 -85 242 -357z" />
    <glyph glyph-name="C" unicode="C" horiz-adv-x="1492" 
d="M768 1456q225 0 404 -131t253 -342h-82q-72 180 -226 289q-155 109 -349 108q-260 0 -443 -194t-183 -470q0 -275 182 -470q184 -195 444 -195q188 0 343 110t230 290h82q-78 -211 -257 -343t-398 -133q-291 -1 -497 217q-205 218 -205 524t205 523q206 217 497 217z" />
    <glyph glyph-name="D" unicode="D" horiz-adv-x="1378" 
d="M1241 715q0 301 -145 466t-412 165h-436v-1270h436q260 0 409 169q148 169 148 470zM1317 715q0 -331 -170 -523t-463 -192h-512v1421h512q297 0 465 -187t168 -519z" />
    <glyph glyph-name="E" unicode="E" horiz-adv-x="1224" 
d="M248 1346v-564h776v-73h-776v-633h866v-76h-942v1421h942v-75h-866z" />
    <glyph glyph-name="F" unicode="F" horiz-adv-x="1153" 
d="M248 1346v-564h741v-73h-741v-709h-76v1421h905v-75h-829z" />
    <glyph glyph-name="G" unicode="G" horiz-adv-x="1556" 
d="M1456 729v-729h-76v387q-78 -193 -238 -303t-374 -109q-291 -1 -497 217q-205 218 -205 524t205 523q206 217 497 217q236 0 410 -126t249 -347h-81q-72 185 -224 291t-354 106q-260 0 -443 -194t-183 -470q0 -275 182 -470q184 -195 440 -195t424 167t190 435h-596v76
h674z" />
    <glyph glyph-name="H" unicode="H" horiz-adv-x="1445" 
d="M1278 1421v-1421h-76v707h-954v-707h-76v1421h76v-637h954v637h76z" />
    <glyph glyph-name="I" unicode="I" horiz-adv-x="428" 
d="M254 1421v-1421h-76v1421h76z" />
    <glyph glyph-name="J" unicode="J" horiz-adv-x="1062" 
d="M895 1421v-1001q0 -203 -117 -325t-304 -122t-310 124t-123 304h76q0 -149 100 -249t257 -100t251 98q94 100 94 270v1001h76z" />
    <glyph glyph-name="K" unicode="K" horiz-adv-x="1200" 
d="M242 0h-76v1421h76v-790l778 790h106l-540 -547l628 -874h-94l-588 819l-290 -293v-526z" />
    <glyph glyph-name="L" unicode="L" horiz-adv-x="1116" 
d="M248 1421v-1345h817v-76h-893v1421h76z" />
    <glyph glyph-name="M" unicode="M" horiz-adv-x="1667" 
d="M1501 1421v-1421h-78v1243l-544 -1243h-84l-547 1243v-1243h-76v1421h80l584 -1329l583 1329h82z" />
    <glyph glyph-name="N" unicode="N" horiz-adv-x="1449" 
d="M1284 1421v-1421h-86l-950 1307v-1307h-76v1421h86l950 -1306v1306h76z" />
    <glyph glyph-name="O" unicode="O" horiz-adv-x="1531" 
d="M768 51q260 0 442 196q182 197 182 473t-180 468q-182 192 -443 192t-444 -194t-183 -470q0 -275 182 -470q184 -195 444 -195zM771 1456q294 0 497 -214q202 -214 202 -523t-206 -526t-496 -217q-291 0 -497 216q-205 218 -205 524t205 523q206 217 500 217z" />
    <glyph glyph-name="P" unicode="P" horiz-adv-x="1210" 
d="M745 709q139 1 239 83t101 235q0 153 -91 236t-255 83h-491v-637h497zM1161 1031q1 -179 -115 -289t-301 -109h-497v-633h-76v1421h567q195 0 309 -105q113 -106 113 -285z" />
    <glyph glyph-name="Q" unicode="Q" horiz-adv-x="1531" 
d="M1395 707q1 291 -181 482t-444 191t-445 -194t-183 -470q0 -275 182 -470q184 -195 444 -195q193 0 352 115l-170 164h111l117 -115q217 201 217 492zM771 1456q294 0 497 -214t202 -525q0 -161 -63 -307t-174 -248l168 -162h-111l-114 113q-182 -137 -408 -138
q-291 -1 -497 217q-205 218 -205 524t205 523q206 217 500 217z" />
    <glyph glyph-name="R" unicode="R" horiz-adv-x="1288" 
d="M778 709q137 0 238 83q100 84 100 236t-90 235t-256 83h-522v-637h530zM1151 172q0 -94 31 -172h-78q-29 61 -29 154v206q0 163 -94 219t-207 56h-526v-635h-76v1421h598q196 0 310 -105t114 -288q0 -125 -64 -219t-174 -137q195 -74 195 -312v-188z" />
    <glyph glyph-name="S" unicode="S" horiz-adv-x="1220" 
d="M127 1079q0 171 132 275t356 104q223 0 347 -124t123 -296h-75q0 158 -110 252t-292 94t-294 -84t-112 -211t98 -195q97 -68 342 -119q245 -50 366 -135q120 -85 120 -265t-143 -291t-365 -111t-378 120q-154 120 -154 339h76q0 -184 130 -282t324 -98t314 87
q121 89 121 231q-1 142 -97 213t-346 122q-359 68 -445 221q-38 66 -38 153z" />
    <glyph glyph-name="T" unicode="T" horiz-adv-x="1056" 
d="M1047 1346h-480v-1346h-75v1346h-478v75h1033v-75z" />
    <glyph glyph-name="U" unicode="U" horiz-adv-x="1384" 
d="M1239 1421v-913q0 -236 -152 -386q-153 -150 -393 -149q-240 0 -392 150t-152 385v913h75v-913q0 -205 130 -331t340 -126t339 126t129 331v913h76z" />
    <glyph glyph-name="V" unicode="V" horiz-adv-x="1140" 
d="M1135 1421l-523 -1421h-82l-524 1421h82l483 -1312l482 1312h82z" />
    <glyph glyph-name="W" unicode="W" horiz-adv-x="1730" 
d="M1716 1421l-403 -1421h-80l-365 1288l-364 -1288h-80l-406 1421h80l365 -1286l364 1286h82l365 -1286l364 1286h78z" />
    <glyph glyph-name="X" unicode="X" horiz-adv-x="1097" 
d="M995 0l-444 655l-445 -655h-92l490 723l-473 698h92l428 -630l428 630h92l-475 -698l491 -723h-92z" />
    <glyph glyph-name="Y" unicode="Y" horiz-adv-x="1118" 
d="M598 0h-76v614l-510 807h90l457 -725l457 725h90l-508 -807v-614z" />
    <glyph glyph-name="Z" unicode="Z" horiz-adv-x="1118" 
d="M1102 76v-76h-1075v76l979 1270h-955v75h1051v-78l-979 -1267h979z" />
    <glyph glyph-name="bracketleft" unicode="[" horiz-adv-x="538" 
d="M225 1446v-1471h262v-73h-337v1618h337v-74h-262z" />
    <glyph glyph-name="backslash" unicode="\" horiz-adv-x="550" 
d="M532 0h-77l-432 1524h79z" />
    <glyph glyph-name="bracketright" unicode="]" horiz-adv-x="538" 
d="M317 1446h-260v74h336v-1618h-336v73h260v1471z" />
    <glyph glyph-name="asciicircum" unicode="^" horiz-adv-x="1112" 
d="M66 528l450 893h84l451 -893h-84l-408 809l-409 -809h-84z" />
    <glyph glyph-name="underscore" unicode="_" horiz-adv-x="1611" 
d="M-23 -215v74h1661v-74h-1661z" />
    <glyph glyph-name="grave" unicode="`" horiz-adv-x="808" 
d="M221 1423h96l172 -209h-83z" />
    <glyph glyph-name="a" unicode="a" horiz-adv-x="1120" 
d="M901 383v242q-39 -35 -107 -58t-123 -29q-54 -6 -151 -16q-201 -20 -288 -76t-87 -167q0 -61 32 -107q76 -110 269 -115q186 0 321 84q134 84 134 242zM901 154v20q-63 -90 -182 -141t-273 -51t-268 76t-115 218q0 171 143 241q116 57 307 76q191 18 264 41t99 55t25 79
q0 90 -55 147t-126 75t-159 18q-295 0 -364 -224h-78q35 141 149 220q116 78 304 78t296 -83q108 -82 109 -231v-596q0 -94 31 -172h-78q-29 61 -29 154z" />
    <glyph glyph-name="b" unicode="b" horiz-adv-x="1257" 
d="M1126 526q0 197 -132 337q-132 141 -318 141t-318 -140t-133 -338q0 -197 132 -336q133 -139 319 -139t318 139t132 336zM1204 525q0 -228 -154 -389t-374 -161q-143 0 -263 76t-188 203v-254h-75v1524h75v-725q68 129 188 206t263 76q219 0 374 -163q154 -165 154 -393z
" />
    <glyph glyph-name="c" unicode="c" horiz-adv-x="1150" 
d="M57 526q0 228 155 392t372 163q174 0 303 -95t184 -257h-82q-51 127 -159 201t-246 74q-186 0 -318 -140t-133 -338q0 -197 132 -336t319 -139q145 0 253 74t154 203h80q-53 -162 -183 -257t-304 -96q-217 0 -372 161t-155 390z" />
    <glyph glyph-name="d" unicode="d" horiz-adv-x="1255" 
d="M1034 526q0 197 -132 337q-132 141 -318 141t-318 -140t-133 -338q0 -197 132 -336q133 -139 319 -139t318 139t132 336zM1110 1524v-1524h-76v254q-66 -127 -186 -203t-264 -76q-217 0 -372 161t-155 390q0 228 155 392t372 163q145 -1 265 -77t185 -205v725h76z" />
    <glyph glyph-name="e" unicode="e" horiz-adv-x="1163" 
d="M584 1004q-166 0 -291 -114t-152 -286h887q-29 172 -154 286q-124 114 -290 114zM596 51q309 0 412 277h79q-55 -172 -181 -262t-310 -91q-225 0 -382 160t-157 390q0 229 155 393t377 164q221 0 373 -172q152 -171 148 -382h-977q2 -205 136 -341t327 -136z" />
    <glyph glyph-name="f" unicode="f" horiz-adv-x="530" 
d="M524 979h-282v-979h-78v979h-144v76h144v73q0 178 96 278t264 85v-70q-143 9 -213 -71t-69 -228v-67h282v-76z" />
    <glyph glyph-name="g" unicode="g" horiz-adv-x="1253" 
d="M598 51q192 0 318 134t126 341t-127 342q-127 136 -317 136t-322 -140t-133 -338q0 -197 132 -336t323 -139zM1118 1055v-1026q0 -244 -143 -395t-377 -150q-184 0 -314 91t-178 255h80q45 -129 153 -200t259 -70q203 0 324 128t120 341v217q-63 -125 -182 -199t-266 -74
q-217 0 -372 162q-154 162 -154 391t154 393q155 163 372 162q147 1 266 -73t182 -201v248h76z" />
    <glyph glyph-name="h" unicode="h" horiz-adv-x="1173" 
d="M1036 637v-637h-75v637q-1 176 -93 273q-92 98 -258 98t-276 -106t-109 -265v-637h-75v1524h75v-647q57 96 157 150t224 54q203 0 317 -118q113 -119 113 -326z" />
    <glyph glyph-name="i" unicode="i" horiz-adv-x="391" 
d="M236 1055v-1055h-76v1055h76zM236 1421v-188h-76v188h76z" />
    <glyph glyph-name="j" unicode="j" horiz-adv-x="372" 
d="M225 1055v-1258q1 -141 -73 -210t-201 -54v74q98 -8 149 37q49 45 50 153v1258h75zM225 1421v-188h-75v188h75z" />
    <glyph glyph-name="k" unicode="k" horiz-adv-x="1024" 
d="M225 0h-75v1524h75v-1067l619 598h108l-399 -385l451 -670h-93l-413 614l-273 -262v-352z" />
    <glyph glyph-name="l" unicode="l" horiz-adv-x="391" 
d="M236 1524v-1524h-76v1524h76z" />
    <glyph glyph-name="m" unicode="m" horiz-adv-x="1812" 
d="M1675 680v-680h-76v680q0 141 -92 232q-92 92 -232 92q-141 0 -233 -92t-92 -232v-680h-76v680q0 141 -92 232q-92 92 -232 92t-232 -92t-93 -232v-680h-75v1055h75v-144q106 170 324 170q127 0 225 -63t144 -170q43 109 137 171t219 62q174 0 288 -113
q113 -114 113 -288z" />
    <glyph glyph-name="n" unicode="n" horiz-adv-x="1173" 
d="M1036 637v-637h-75v637q-1 176 -93 273q-92 98 -258 98t-276 -106t-109 -265v-637h-75v1055h75v-178q57 96 157 150t224 54q203 0 317 -118q113 -119 113 -326z" />
    <glyph glyph-name="o" unicode="o" horiz-adv-x="1165" 
d="M584 47q186 0 318 140t132 339t-132 341q-132 143 -318 143t-318 -142t-133 -342q1 -199 133 -339t318 -140zM57 525q0 228 155 392t373 164q219 1 373 -163t154 -392t-155 -390q-155 -161 -373 -161t-372 161q-155 161 -155 389z" />
    <glyph glyph-name="p" unicode="p" horiz-adv-x="1247" 
d="M1116 526q0 197 -132 337q-132 141 -318 141t-318 -140t-133 -338q0 -197 132 -336q133 -139 319 -139t318 139t132 336zM1194 525q0 -228 -155 -389t-373 -161q-143 0 -264 76q-120 76 -187 203v-723h-76v1524h76v-256q68 129 187 206q120 77 264 76q220 0 374 -164
t154 -392z" />
    <glyph glyph-name="q" unicode="q" horiz-adv-x="1245" 
d="M1034 526q0 197 -132 337q-132 141 -318 141t-318 -140t-131 -338q0 -197 131 -336q132 -139 318 -139t318 139t132 336zM1110 1055v-1524h-76v723q-66 -127 -186 -203t-264 -76q-217 0 -372 161t-155 390q0 228 155 392t372 163q145 -1 265 -77t185 -205v256h76z" />
    <glyph glyph-name="r" unicode="r" horiz-adv-x="671" 
d="M227 637v-637h-77v1055h77v-176q31 57 70 94q145 129 358 104v-69q-201 18 -311 -90q-117 -104 -117 -281z" />
    <glyph glyph-name="s" unicode="s" horiz-adv-x="1046" 
d="M570 -25q-216 0 -346 86t-156 246h75q27 -127 135 -193t290 -67q182 0 282 105q57 61 51 145q-2 96 -87 149t-279 82q-245 32 -321 90q-34 25 -61 71q-28 46 -30 106q0 117 106 201q105 84 287 85t294 -75t144 -220h-77q-68 223 -353 224q-141 0 -233 -62t-90 -150
q2 -89 81 -129q79 -41 219 -61t207 -38q173 -45 232 -140q35 -55 39 -131q4 -121 -74 -201q-119 -123 -335 -123z" />
    <glyph glyph-name="t" unicode="t" horiz-adv-x="571" 
d="M240 979v-614q0 -141 69 -222q70 -80 215 -73v-70q-168 -14 -264 85t-96 280v614h-144v76h144v225h76v-225h284v-76h-284z" />
    <glyph glyph-name="u" unicode="u" horiz-adv-x="1173" 
d="M1028 1055v-1055h-76v174q-117 -199 -368 -199q-193 0 -318 125t-125 318v637h76v-637q1 -160 105 -263t264 -103t263 102q103 104 103 264v637h76z" />
    <glyph glyph-name="v" unicode="v" horiz-adv-x="917" 
d="M905 1055l-405 -1055h-82l-406 1055h82l365 -951l364 951h82z" />
    <glyph glyph-name="w" unicode="w" horiz-adv-x="1421" 
d="M1399 1055l-322 -1055h-82l-282 930l-283 -930h-82l-321 1055h79l283 -930l283 930h82l282 -930l283 930h80z" />
    <glyph glyph-name="x" unicode="x" horiz-adv-x="884" 
d="M793 0l-349 481l-348 -481h-94l395 545l-370 510h94l323 -445l324 445h94l-370 -510l395 -545h-94z" />
    <glyph glyph-name="y" unicode="y" horiz-adv-x="911" 
d="M895 1055l-455 -1209q-113 -297 -409 -241v71q127 -18 209 27t129 170l49 129l-398 1053h82l355 -946l358 946h80z" />
    <glyph glyph-name="z" unicode="z" horiz-adv-x="894" 
d="M883 76v-76h-863v76l742 903h-719v76h817v-76l-741 -903h764z" />
    <glyph glyph-name="braceleft" unicode="{" horiz-adv-x="520" 
d="M459 -76v-63q-115 -5 -174 59t-60 182v357q0 197 -141 196h-10v70h10q141 0 141 197v356q-1 119 59 182t175 58v-62q-158 0 -158 -170v-356q0 -186 -117 -240q117 -53 117 -239v-359q0 -168 158 -168z" />
    <glyph glyph-name="bar" unicode="|" horiz-adv-x="405" 
d="M168 1524h76v-1524h-76v1524z" />
    <glyph glyph-name="braceright" unicode="}" horiz-adv-x="520" 
d="M451 725v-70h-11q-141 0 -141 -196v-357q0 -120 -59 -184t-174 -57v63q158 0 157 168v359q0 184 115 239q-115 55 -115 240v356q0 170 -157 170v62q115 6 174 -58t59 -182v-356q0 -197 141 -197h11z" />
    <glyph glyph-name="asciitilde" unicode="~" horiz-adv-x="823" 
d="M528 1579q-54 0 -124 44q-71 44 -107 42q-55 0 -82 -78h-65q16 76 57 114t94 38t123 -44t106 -44q55 0 82 80h66q-16 -76 -56 -114t-94 -38z" />
    <glyph glyph-name="nbspace" unicode="&#xa0;" horiz-adv-x="604" 
 />
    <glyph glyph-name="exclamdown" unicode="&#xa1;" horiz-adv-x="423" 
d="M252 1055v-1055h-76v1055h76zM252 1421v-188h-76v188h76z" />
    <glyph glyph-name="cent" unicode="&#xa2;" horiz-adv-x="1032" 
d="M539 993q-176 0 -295 -136t-119 -337q-1 -141 63 -256t170 -172l287 887q-45 14 -106 14zM49 520q0 231 140 388t350 157q68 0 129 -18l75 233h76l-84 -258q184 -86 254 -299h-80q-61 162 -196 229l-287 -886q55 -16 113 -17q131 0 231 77t143 208h80q-47 -162 -169 -259
t-285 -98q-72 0 -136 19l-75 -236h-76l84 263q-131 61 -209 195t-78 302z" />
    <glyph glyph-name="sterling" unicode="&#xa3;" horiz-adv-x="1085" 
d="M301 457q0 102 -47 205h-213v71h172q-1 6 -23 42q-87 146 -90 265q0 156 114 270t328 114t328 -122t115 -292h-76q0 154 -101 248t-267 94q-167 0 -265 -85t-98 -227q0 -96 90 -249q2 -5 14 -25t19 -33h395v-71h-358q39 -98 39 -190t-37 -189q-37 -96 -98 -158
q195 75 370 -6q115 -53 204 -53t179 71l43 -63q-78 -58 -162 -74t-146 -2t-158 56t-219 28q-124 -14 -238 -88l-43 63q106 76 168 187q61 111 61 213z" />
    <glyph glyph-name="currency" unicode="&#xa4;" horiz-adv-x="1353" 
d="M805 0q-213 0 -380 137t-222 350h-172v72h157q-8 65 -8 93t4 77h-153v74h166q47 221 217 366t391 146q160 0 293 -75t215 -204l-37 -75q-72 131 -197 207t-274 77q-189 0 -337 -126t-194 -316h924l-35 -74h-901q-6 -37 -6 -71t8 -99h817l-37 -72h-763q51 -182 196 -300
t328 -117q127 0 239 59t189 164h88q-84 -135 -221 -214t-295 -79z" />
    <glyph glyph-name="yen" unicode="&#xa5;" horiz-adv-x="1011" 
d="M958 958v-75h-249l-150 -262h369v-74h-381v-547h-76v547h-381v74h367l-150 262h-248v75h207l-266 463h88l420 -735h2l418 735h88l-264 -463h206z" />
    <glyph glyph-name="section" unicode="&#xa7;" horiz-adv-x="1030" 
d="M885 672q0 80 -73 130t-255 85t-266 82q-63 -23 -103 -77t-38 -132q0 -78 76 -130t255 -84q180 -32 269 -83q61 20 98 74t37 135zM870 242q0 -113 -96 -191t-262 -78q-166 1 -256 93t-90 221h76q0 -109 76 -175t202 -65q127 0 201 56q74 55 74 147t-72 141t-277 88
t-290 111q-84 71 -82 182q0 166 153 244q-61 61 -61 174q0 114 97 190t263 76t255 -91t89 -220h-75q0 109 -76 175t-201 66t-201 -58q-75 -58 -75 -150t76 -140q77 -46 197 -70t168 -36q127 -32 197 -88q81 -69 81 -185q0 -169 -150 -245q59 -59 59 -172z" />
    <glyph glyph-name="dieresis" unicode="&#xa8;" horiz-adv-x="806" 
d="M315 1219h-96v141h96v-141zM594 1219h-98v141h98v-141z" />
    <glyph glyph-name="copyright" unicode="&#xa9;" horiz-adv-x="1589" 
d="M797 293q-168 0 -286 124t-118 300t118 300t286 124q131 0 234 -77t147 -202h-80q-39 92 -119 148t-180 57q-137 0 -233 -102q-96 -101 -97 -247q0 -146 96 -250t234 -103q96 0 177 56t120 148h80q-42 -123 -146 -199t-233 -77zM797 47q274 0 470 196q195 195 195 473
t-196 474t-469 194q-274 0 -469 -196t-195 -472q0 -277 195 -473t469 -196zM797 1456q305 0 523 -217t218 -523t-218 -524t-523 -219q-305 0 -523 218q-217 219 -217 525t217 523q218 217 523 217z" />
    <glyph glyph-name="ordfeminine" unicode="&#xaa;" horiz-adv-x="774" 
d="M567 1018v137q-39 -43 -211 -59q-217 -23 -217 -140q1 -66 55 -94t115 -28q109 0 184 47q74 47 74 137zM362 1452q280 0 279 -203v-358q0 -53 21 -103h-76q-16 33 -17 80q-78 -106 -260 -106q-98 0 -172 50t-74 144q0 178 283 203q117 9 168 29t51 72t-48 87
q-48 36 -138 35q-166 0 -205 -122h-78q20 88 93 140t173 52z" />
    <glyph glyph-name="guillemotleft" unicode="&#xab;" horiz-adv-x="690" 
d="M41 662l266 221v-99l-211 -172l211 -172v-98l-266 221v99zM387 662l268 221v-99l-213 -172l213 -172v-98l-268 221v99z" />
    <glyph glyph-name="logicalnot" unicode="&#xac;" 
d="M199 737v-190h-76v190h76z" />
    <glyph glyph-name="registered" unicode="&#xae;" horiz-adv-x="1589" 
d="M1071 885q0 166 -180 166h-293v-332h297q72 0 124 43t52 123zM598 645v-342h-76v821h369q119 0 187 -63t69 -165q-1 -102 -55 -167q-54 -64 -146 -80l197 -346h-88l-189 342h-268zM1462 716q0 278 -196 474t-469 194q-274 0 -469 -196t-195 -472q0 -277 195 -473
t469 -196t470 196q195 195 195 473zM1538 716q0 -306 -218 -524t-523 -219q-305 0 -523 218q-217 219 -217 525t217 523q216 217 522 217t524 -217t218 -523z" />
    <glyph glyph-name="macron" unicode="&#xaf;" horiz-adv-x="847" 
d="M705 1303v-76h-562v76h562z" />
    <glyph glyph-name="macron" unicode="&#x2c9;" horiz-adv-x="847" 
d="M705 1303v-76h-562v76h562z" />
    <glyph glyph-name="degree" unicode="&#xb0;" horiz-adv-x="720" 
d="M362 866q98 0 168 71t70 170t-70 170t-168 71t-168 -71t-71 -170q1 -99 71 -170t168 -71zM361 1421q131 0 223 -92t92 -222t-92 -222t-222 -92t-223 92q-92 92 -92 222t92 222t222 92z" />
    <glyph glyph-name="twosuperior" unicode="&#xb2;" horiz-adv-x="759" 
d="M668 600v-72h-586v37q0 131 80 219q55 66 199 145t194 131q49 52 49 131t-54 130t-154 51t-162 -66q-60 -67 -60 -171h-76q0 139 85 222t215 83t206 -72t76 -178t-62 -172t-200 -140t-194 -134t-64 -144h508z" />
    <glyph glyph-name="threesuperior" unicode="&#xb3;" horiz-adv-x="772" 
d="M690 780q0 -110 -81 -190t-233 -80t-231 82q-80 82 -79 205h77q-1 -95 59 -157t175 -62t176 60t61 140q0 186 -241 187h-54v75h54q98 0 152 44t55 120q0 76 -52 122t-146 46t-152 -56t-58 -149h-76q0 117 79 195t209 78t201 -67t70 -169q0 -141 -131 -196
q166 -52 166 -228z" />
    <glyph glyph-name="acute" unicode="&#xb4;" horiz-adv-x="808" 
d="M621 1423l-185 -209h-86l172 209h99z" />
    <glyph glyph-name="mu" unicode="&#xb5;" 
d="M199 737v-190h-76v190h76z" />
    <glyph glyph-name="mu" unicode="&#x3bc;" 
d="M199 737v-190h-76v190h76z" />
    <glyph glyph-name="paragraph" unicode="&#xb6;" horiz-adv-x="1062" 
d="M918 1421v-1421h-76v1346h-228v-1346h-75v633h-54q-184 -1 -300 109q-115 110 -115 289t113 285q114 105 309 105h426z" />
    <glyph glyph-name="periodcentered" unicode="&#xb7;" 
d="M199 737v-190h-76v190h76z" />
    <glyph glyph-name="periodcentered" unicode="&#x22c5;" 
d="M199 737v-190h-76v190h76z" />
    <glyph glyph-name="cedilla" unicode="&#xb8;" horiz-adv-x="614" 
d="M471 -230q0 -144 -171 -143q-83 0 -157 74l23 43q70 -59 127 -59q115 0 115 75q0 35 -25 58q-25 22 -72 22t-80 -30l-47 34l82 156h72l-70 -119q61 31 132 -4t71 -107z" />
    <glyph glyph-name="onesuperior" unicode="&#xb9;" horiz-adv-x="538" 
d="M305 1421v-893h-78v738h-133v61q127 6 133 94h78z" />
    <glyph glyph-name="ordmasculine" unicode="&#xba;" horiz-adv-x="772" 
d="M388 829q105 0 179 80t74 195q0 114 -74 196t-179 82t-180 -82t-75 -196t75 -194q75 -81 180 -81zM387 1452q137 0 235 -102t97 -246q0 -144 -97 -244q-96 -102 -234 -102t-234 101t-96 245t96 246t233 102z" />
    <glyph glyph-name="guillemotright" unicode="&#xbb;" horiz-adv-x="690" 
d="M41 883l266 -221v-99l-266 -221v98l211 172l-211 172v99zM653 662v-99l-266 -221v98l211 172l-211 172v99z" />
    <glyph glyph-name="onequarter" unicode="&#xbc;" horiz-adv-x="1236" 
d="M1008 285v491l-349 -491h349zM1176 215h-93v-215h-75v215h-437v70l437 608h75v-608h93v-70zM1038 1421l-835 -1446h-82l835 1446h82zM229 1266h-135v61q127 6 135 94h76v-893h-76v738z" />
    <glyph glyph-name="onehalf" unicode="&#xbd;" horiz-adv-x="1449" 
d="M1356 72v-72h-586v39q0 129 80 217q58 68 202 146t192 130t48 132t-54 130t-154 50t-161 -67q-60 -67 -61 -171h-76q0 139 85 222t217 83q132 -1 207 -73t75 -177t-62 -171t-201 -142t-195 -134t-64 -142h508zM1040 1421l-835 -1446h-82l835 1446h82zM229 1266h-135v61
q127 6 135 94h76v-893h-76v738z" />
    <glyph glyph-name="threequarters" unicode="&#xbe;" horiz-adv-x="1536" 
d="M1307 285v491l-351 -491h351zM1475 215h-93v-215h-75v215h-437v70l435 608h77v-608h93v-70zM1335 1421l-833 -1446h-82l833 1446h82zM688 780q0 -110 -82 -190t-232 -80q-151 0 -230 82t-78 205h75q-1 -95 59 -157t175 -62t176 60t61 140q0 186 -239 187h-56v75h56
q96 0 150 44t55 120q0 76 -52 122t-146 46t-152 -56t-58 -149h-78q0 117 80 195t210 78t202 -67t71 -169q0 -141 -133 -196q166 -51 166 -228z" />
    <glyph glyph-name="questiondown" unicode="&#xbf;" horiz-adv-x="995" 
d="M498 -41q-196 0 -316 104q-119 104 -119 279q0 82 33 148t81 111q48 44 110 85q65 49 103 86t70 106t32 154v17h77v-17q0 -160 -80 -253q-43 -50 -71 -76q-28 -25 -90 -71t-95 -76t-63 -87t-29 -129q1 -141 97 -226t260 -85t263 89t109 240h76q-10 -184 -131 -292
t-317 -107zM569 1415v-190h-77v190h77z" />
    <glyph glyph-name="Agrave" unicode="&#xc0;" horiz-adv-x="1193" 
d="M885 565l-289 752l-287 -752h576zM913 489h-632l-189 -489h-82l545 1421h84l545 -1421h-82zM395 1778h99l172 -211h-86z" />
    <glyph glyph-name="Aacute" unicode="&#xc1;" horiz-adv-x="1193" 
d="M885 565l-289 752l-287 -752h576zM913 489h-632l-189 -489h-82l545 1421h84l545 -1421h-82zM819 1778l-184 -211h-86l172 211h98z" />
    <glyph glyph-name="Acircumflex" unicode="&#xc2;" horiz-adv-x="1193" 
d="M885 565l-289 752l-287 -752h576zM913 489h-632l-189 -489h-82l545 1421h84l545 -1421h-82zM365 1563l165 200h93l165 -200h-92l-121 149l-118 -149h-92z" />
    <glyph glyph-name="Atilde" unicode="&#xc3;" horiz-adv-x="1193" 
d="M885 565l-289 752l-287 -752h576zM913 489h-632l-189 -489h-82l545 1421h84l545 -1421h-82zM700 1579q-54 0 -124 44t-107 42q-55 0 -82 -78h-63q14 76 55 114t94 38t123 -44t106 -44q57 0 82 80h66q-16 -76 -56 -114t-94 -38z" />
    <glyph glyph-name="Adieresis" unicode="&#xc4;" horiz-adv-x="1193" 
d="M885 565l-289 752l-287 -752h576zM913 489h-632l-189 -489h-82l545 1421h84l545 -1421h-82zM487 1591h-98v140h98v-140zM764 1591h-98v140h98v-140z" />
    <glyph glyph-name="Aring" unicode="&#xc5;" horiz-adv-x="1193" 
d="M578 1604q44 0 76 32t32 80q0 47 -32 80t-78 33t-77 -33q-32 -33 -32 -80q0 -48 33 -80t78 -32zM885 565l-289 752l-287 -752h576zM913 489h-632l-189 -489h-82l545 1421h84l545 -1421h-82zM578 1886q70 0 118 -50t49 -120q0 -70 -49 -119q-48 -49 -118 -49t-120 49
t-50 119t50 120t120 50z" />
    <glyph glyph-name="AE" unicode="&#xc6;" horiz-adv-x="2007" 
d="M954 567v779h-274l-340 -779h614zM1032 1346v-562h776v-77h-776v-631h864v-76h-942v489h-647l-213 -489h-84l621 1421h1265v-75h-864z" />
    <glyph glyph-name="Ccedilla" unicode="&#xc7;" horiz-adv-x="1495" 
d="M731 -373q-84 0 -156 74l23 43q70 -59 126 -59q114 0 114 75q0 35 -25 58q-25 22 -71 22t-78 -30l-50 34l74 136q-264 32 -443 242t-179 505t206 512q207 217 498 217q226 0 404 -131t253 -342h-81q-72 180 -227 289t-349 108q-260 0 -444 -194t-184 -470
q0 -275 184 -470t444 -195q188 0 343 110q154 110 228 290h82q-78 -211 -256 -343t-397 -133h-16l-54 -94q60 31 132 -4t72 -107t-45 -107q-44 -36 -128 -36z" />
    <glyph glyph-name="Egrave" unicode="&#xc8;" horiz-adv-x="1224" 
d="M248 1346v-564h776v-73h-776v-633h866v-76h-942v1421h942v-75h-866zM418 1778h98l170 -211h-84z" />
    <glyph glyph-name="Eacute" unicode="&#xc9;" horiz-adv-x="1224" 
d="M248 1346v-564h776v-73h-776v-633h866v-76h-942v1421h942v-75h-866zM850 1778l-184 -211h-84l172 211h96z" />
    <glyph glyph-name="Ecircumflex" unicode="&#xca;" horiz-adv-x="1224" 
d="M248 1346v-564h776v-73h-776v-633h866v-76h-942v1421h942v-75h-866zM430 1563l164 200h92l166 -200h-92l-119 149l-119 -149h-92z" />
    <glyph glyph-name="Edieresis" unicode="&#xcb;" horiz-adv-x="1224" 
d="M248 1346v-564h776v-73h-776v-633h866v-76h-942v1421h942v-75h-866zM565 1591h-98v140h98v-140zM842 1591h-97v140h97v-140z" />
    <glyph glyph-name="Igrave" unicode="&#xcc;" horiz-adv-x="428" 
d="M254 1421v-1421h-76v1421h76zM-33 1778h99l172 -211h-84z" />
    <glyph glyph-name="Iacute" unicode="&#xcd;" horiz-adv-x="428" 
d="M254 1421v-1421h-76v1421h76zM440 1776l-184 -209h-86l172 209h98z" />
    <glyph glyph-name="Icircumflex" unicode="&#xce;" horiz-adv-x="428" 
d="M254 1421v-1421h-76v1421h76zM2 1563l166 200h92l166 -200h-92l-119 149l-121 -149h-92z" />
    <glyph glyph-name="Idieresis" unicode="&#xcf;" horiz-adv-x="428" 
d="M254 1421v-1421h-76v1421h76zM137 1589h-96v142h96v-142zM387 1589h-98v142h98v-142z" />
    <glyph glyph-name="Eth" unicode="&#xd0;" horiz-adv-x="1366" 
d="M670 76q262 0 410 169t147 470q1 301 -145 466t-412 165h-437v-527h482v-76h-482v-667h437zM1305 715q0 -331 -171 -523t-464 -192h-512v743h-127v76h127v602h512q299 0 467 -187t168 -519z" />
    <glyph glyph-name="Ntilde" unicode="&#xd1;" horiz-adv-x="1449" 
d="M1284 1421v-1421h-86l-950 1307v-1307h-76v1421h86l950 -1306v1306h76zM860 1579q-53 0 -124 44t-107 42q-55 0 -82 -78h-66q15 76 57 114t95 38t123 -44t106 -44q55 0 82 80h66q-16 -76 -56 -114t-94 -38z" />
    <glyph glyph-name="Ograve" unicode="&#xd2;" horiz-adv-x="1531" 
d="M768 51q260 0 442 196q182 197 182 473t-180 468q-182 192 -443 192t-444 -194t-183 -470q0 -275 182 -470q184 -195 444 -195zM771 1456q294 0 497 -214q202 -214 202 -523t-206 -526t-496 -217q-291 0 -497 216q-205 218 -205 524t205 523q206 217 500 217zM528 1778
h97l172 -211h-84z" />
    <glyph glyph-name="Oacute" unicode="&#xd3;" horiz-adv-x="1531" 
d="M768 51q260 0 442 196q182 197 182 473t-180 468q-182 192 -443 192t-444 -194t-183 -470q0 -275 182 -470q184 -195 444 -195zM771 1456q294 0 497 -214q202 -214 202 -523t-206 -526t-496 -217q-291 0 -497 216q-205 218 -205 524t205 523q206 217 500 217zM999 1778
l-184 -211h-84l172 211h96z" />
    <glyph glyph-name="Ocircumflex" unicode="&#xd4;" horiz-adv-x="1531" 
d="M768 51q260 0 442 196q182 197 182 473t-180 468q-182 192 -443 192t-444 -194t-183 -470q0 -275 182 -470q184 -195 444 -195zM771 1456q294 0 497 -214q202 -214 202 -523t-206 -526t-496 -217q-291 0 -497 216q-205 218 -205 524t205 523q206 217 500 217zM545 1563
l166 200h92l166 -200h-92l-119 149l-121 -149h-92z" />
    <glyph glyph-name="Otilde" unicode="&#xd5;" horiz-adv-x="1531" 
d="M768 51q260 0 442 196q182 197 182 473t-180 468q-182 192 -443 192t-444 -194t-183 -470q0 -275 182 -470q184 -195 444 -195zM771 1456q294 0 497 -214q202 -214 202 -523t-206 -526t-496 -217q-291 0 -497 216q-205 218 -205 524t205 523q206 217 500 217zM867 1579
q-52 0 -124 44t-108 42q-55 0 -82 -78h-64q17 76 57 114t93 38t124 -44t107 -44q55 0 82 80h64q-16 -76 -56 -114t-93 -38z" />
    <glyph glyph-name="Odieresis" unicode="&#xd6;" horiz-adv-x="1531" 
d="M768 51q260 0 442 196q182 197 182 473t-180 468q-182 192 -443 192t-444 -194t-183 -470q0 -275 182 -470q184 -195 444 -195zM771 1456q294 0 497 -214q202 -214 202 -523t-206 -526t-496 -217q-291 0 -497 216q-205 218 -205 524t205 523q206 217 500 217zM670 1591
h-97v140h97v-140zM948 1591h-98v140h98v-140z" />
    <glyph glyph-name="multiply" unicode="&#xd7;" horiz-adv-x="983" 
d="M545 520l407 -407l-53 -56l-407 410l-408 -410l-53 56l407 407l-407 408l53 53l408 -408l407 408l53 -53z" />
    <glyph glyph-name="Oslash" unicode="&#xd8;" horiz-adv-x="1531" 
d="M776 51q252 0 434 196t183 458q0 262 -142 438l-905 -918q178 -174 430 -174zM768 1380q-260 0 -443 -194t-183 -460t157 -452l909 920q-180 186 -440 186zM1470 700q0 -290 -206 -507t-488 -217t-483 194l-146 -145l-49 47l148 149q-180 209 -180 505t205 513
q206 217 497 217t494 -207l139 142l47 -50l-141 -143q163 -208 163 -498z" />
    <glyph glyph-name="Ugrave" unicode="&#xd9;" horiz-adv-x="1384" 
d="M1239 1421v-913q0 -236 -152 -386q-153 -150 -393 -149q-240 0 -392 150t-152 385v913h75v-913q0 -205 130 -331t340 -126t339 126t129 331v913h76zM481 1778h97l172 -211h-84z" />
    <glyph glyph-name="Uacute" unicode="&#xda;" horiz-adv-x="1384" 
d="M1239 1421v-913q0 -236 -152 -386q-153 -150 -393 -149q-240 0 -392 150t-152 385v913h75v-913q0 -205 130 -331t340 -126t339 126t129 331v913h76zM911 1778l-184 -211h-86l172 211h98z" />
    <glyph glyph-name="Ucircumflex" unicode="&#xdb;" horiz-adv-x="1384" 
d="M1239 1421v-913q0 -236 -152 -386q-153 -150 -393 -149q-240 0 -392 150t-152 385v913h75v-913q0 -205 130 -331t340 -126t339 126t129 331v913h76zM498 1563l164 200h92l166 -200h-93l-118 149l-119 -149h-92z" />
    <glyph glyph-name="Udieresis" unicode="&#xdc;" horiz-adv-x="1384" 
d="M1239 1421v-913q0 -236 -152 -386q-153 -150 -393 -149q-240 0 -392 150t-152 385v913h75v-913q0 -205 130 -331t340 -126t339 126t129 331v913h76zM606 1591h-98v140h98v-140zM883 1591h-99v140h99v-140z" />
    <glyph glyph-name="Yacute" unicode="&#xdd;" horiz-adv-x="1118" 
d="M598 0h-76v614l-510 807h90l457 -725h2l455 725h90l-508 -807v-614zM815 1741l-184 -211h-86l172 211h98z" />
    <glyph glyph-name="Thorn" unicode="&#xde;" horiz-adv-x="1212" 
d="M1085 761q0 153 -90 237t-254 83h-493v-637h500q139 0 238 82t99 235zM1163 766q-1 -178 -117 -288t-298 -109h-500v-369h-76v1421h76v-264h493q195 0 309 -106q113 -107 113 -285z" />
    <glyph glyph-name="germandbls" unicode="&#xdf;" horiz-adv-x="1222" 
d="M1153 410q0 -199 -140 -320t-368 -121q-102 0 -194 29v76q91 -31 197 -31t199 34t161 120t68 212t-68 212q-119 151 -357 151h-200v76h149q156 0 258 85t102 221t-107 214q-108 78 -267 78t-263 -94q-40 -37 -69 -108t-29 -163v-1081h-75v1081q0 203 119 321
q120 118 323 118t326 -104t122 -271q0 -109 -63 -194t-172 -128q162 -37 255 -147t93 -266z" />
    <glyph glyph-name="agrave" unicode="&#xe0;" horiz-adv-x="1120" 
d="M901 383v242q-39 -35 -107 -58t-123 -29q-54 -6 -151 -16q-201 -20 -288 -76t-87 -167q0 -61 32 -107q76 -110 269 -115q186 0 321 84q134 84 134 242zM901 154v20q-63 -90 -182 -141t-273 -51t-268 76t-115 218q0 171 143 241q116 57 307 76q191 18 264 41t99 55t25 79
q0 90 -55 147t-126 75t-159 18q-295 0 -364 -224h-78q35 141 149 220q116 78 304 78t296 -83q108 -82 109 -231v-596q0 -94 31 -172h-78q-29 61 -29 154zM336 1423h98l170 -209h-84z" />
    <glyph glyph-name="aacute" unicode="&#xe1;" horiz-adv-x="1120" 
d="M901 383v242q-39 -35 -107 -58t-123 -29q-54 -6 -151 -16q-201 -20 -288 -76t-87 -167q0 -61 32 -107q76 -110 269 -115q186 0 321 84q134 84 134 242zM901 154v20q-63 -90 -182 -141t-273 -51t-268 76t-115 218q0 171 143 241q116 57 307 76q191 18 264 41t99 55t25 79
q0 90 -55 147t-126 75t-159 18q-295 0 -364 -224h-78q35 141 149 220q116 78 304 78t296 -83q108 -82 109 -231v-596q0 -94 31 -172h-78q-29 61 -29 154zM780 1423l-184 -209h-84l170 209h98z" />
    <glyph glyph-name="acircumflex" unicode="&#xe2;" horiz-adv-x="1120" 
d="M901 383v242q-39 -35 -107 -58t-123 -29q-54 -6 -151 -16q-201 -20 -288 -76t-87 -167q0 -61 32 -107q76 -110 269 -115q186 0 321 84q134 84 134 242zM901 154v20q-63 -90 -182 -141t-273 -51t-268 76t-115 218q0 171 143 241q116 57 307 76q191 18 264 41t99 55t25 79
q0 90 -55 147t-126 75t-159 18q-295 0 -364 -224h-78q35 141 149 220q116 78 304 78t296 -83q108 -82 109 -231v-596q0 -94 31 -172h-78q-29 61 -29 154zM348 1206l164 203h92l166 -203h-92l-119 152l-121 -152h-90z" />
    <glyph glyph-name="atilde" unicode="&#xe3;" horiz-adv-x="1120" 
d="M901 385v242q-39 -35 -111 -58t-118 -29q-47 -6 -152 -16q-201 -20 -288 -76t-87 -152q1 -94 57 -148t118 -70t126 -17q186 0 321 83q134 83 134 241zM901 158v18q-63 -90 -182 -141t-273 -51t-268 76t-115 233q0 156 143 226q116 57 308 76q192 18 264 42t98 56t25 79
q0 131 -98 184q-97 54 -241 54t-237 -58t-128 -164h-78q35 141 149 219q116 77 304 77t296 -83q108 -82 109 -229v-598q0 -96 31 -172h-78q-29 61 -29 156zM670 1225q-53 0 -124 44t-108 44q-57 -4 -82 -80h-63q14 76 55 114q41 37 94 37t123 -43t107 -43q59 0 82 80h65
q-16 -78 -56 -116t-93 -37z" />
    <glyph glyph-name="adieresis" unicode="&#xe4;" horiz-adv-x="1120" 
d="M901 383v242q-39 -35 -107 -58t-123 -29q-54 -6 -151 -16q-201 -20 -288 -76t-87 -167q0 -61 32 -107q76 -110 269 -115q186 0 321 84q134 84 134 242zM901 154v20q-63 -90 -182 -141t-273 -51t-268 76t-115 218q0 171 143 241q116 57 307 76q191 18 264 41t99 55t25 79
q0 90 -55 147t-126 75t-159 18q-295 0 -364 -224h-78q35 141 149 220q116 78 304 78t296 -83q108 -82 109 -231v-596q0 -94 31 -172h-78q-29 61 -29 154zM461 1219h-96v141h96v-141zM737 1219h-96v141h96v-141z" />
    <glyph glyph-name="aring" unicode="&#xe5;" horiz-adv-x="1120" 
d="M901 383v242q-39 -35 -107 -58t-123 -29q-54 -6 -151 -16q-201 -20 -288 -76t-87 -167q0 -61 32 -107q76 -110 269 -115q186 0 321 84q134 84 134 242zM549 1249q45 0 78 33t32 80q0 47 -32 80q-33 33 -78 33t-77 -33t-32 -80t32 -80t77 -33zM901 154v20
q-63 -90 -182 -141t-273 -51t-268 76t-115 218q0 171 143 241q116 57 307 76q191 18 264 41t99 55t25 79q0 90 -55 147t-126 75t-159 18q-295 0 -364 -224h-78q35 141 149 220q116 78 304 78t296 -83q108 -82 109 -231v-596q0 -94 31 -172h-78q-29 61 -29 154zM549 1532
q70 0 120 -50t50 -120t-50 -119t-120 -49t-119 49t-49 119t49 120t119 50z" />
    <glyph glyph-name="ae" unicode="&#xe6;" horiz-adv-x="2009" 
d="M901 395v230q-39 -35 -107 -58t-123 -29q-54 -6 -151 -16q-201 -20 -288 -76t-87 -167q0 -61 31 -107q75 -109 279 -113q215 0 331 85t115 251zM1426 1006q-166 0 -290 -115t-151 -287h887q-29 172 -155 287t-291 115zM561 1008q-295 0 -362 -224h-80q35 143 149 221
q114 77 300 77t292 -78t111 -218q66 133 187 214q122 81 269 81q205 0 358 -148t167 -364l4 -41h-979v-4q0 -199 134 -336t329 -137q311 1 409 277h82q-55 -170 -181 -261t-299 -91t-301 85q-128 86 -192 228q-31 -145 -160 -227q-130 -81 -345 -80q-158 0 -274 76t-116 233
q0 156 143 226q116 57 307 76q191 18 264 41t99 55t25 79q0 240 -340 240z" />
    <glyph glyph-name="ccedilla" unicode="&#xe7;" horiz-adv-x="1150" 
d="M564 -373q-83 0 -156 74l22 43q70 -59 127 -59q115 0 115 75q0 35 -25 58q-25 22 -69 22t-82 -30l-47 34l71 136q-197 24 -330 180t-133 376t155 382q155 164 372 163q172 0 302 -95t183 -257h-80q-51 127 -159 201t-246 74q-186 0 -318 -140t-133 -338q0 -197 132 -336
t319 -139q143 0 251 74t156 203h80q-53 -160 -183 -256t-302 -97l-54 -94q60 31 132 -4t72 -107t-45 -107q-44 -36 -127 -36z" />
    <glyph glyph-name="egrave" unicode="&#xe8;" horiz-adv-x="1163" 
d="M584 1004q-166 0 -291 -114t-152 -286h887q-29 172 -154 286q-124 114 -290 114zM596 51q309 0 412 277h79q-55 -172 -181 -262t-310 -91q-225 0 -382 160t-157 390q0 229 155 393t377 164q221 0 373 -172q152 -171 148 -382h-977q2 -205 136 -341t327 -136zM348 1423h98
l170 -209h-84z" />
    <glyph glyph-name="eacute" unicode="&#xe9;" horiz-adv-x="1163" 
d="M584 1004q-166 0 -291 -114t-152 -286h887q-29 172 -154 286q-124 114 -290 114zM596 51q309 0 412 277h79q-55 -172 -181 -262t-310 -91q-225 0 -382 160t-157 390q0 229 155 393t377 164q221 0 373 -172q152 -171 148 -382h-977q2 -205 136 -341t327 -136zM825 1423
l-184 -209h-86l172 209h98z" />
    <glyph glyph-name="ecircumflex" unicode="&#xea;" horiz-adv-x="1163" 
d="M584 1004q-166 0 -291 -114t-152 -286h887q-29 172 -154 286q-124 114 -290 114zM596 51q309 0 412 277h79q-55 -172 -181 -262t-310 -91q-225 0 -382 160t-157 390q0 229 155 393t377 164q221 0 373 -172q152 -171 148 -382h-977q2 -205 136 -341t327 -136zM369 1206
l163 203h93l166 -203h-93l-118 152l-119 -152h-92z" />
    <glyph glyph-name="edieresis" unicode="&#xeb;" horiz-adv-x="1163" 
d="M584 1004q-166 0 -291 -114t-152 -286h887q-29 172 -154 286q-124 114 -290 114zM596 51q309 0 412 277h79q-55 -172 -181 -262t-310 -91q-225 0 -382 160t-157 390q0 229 155 393t377 164q221 0 373 -172q152 -171 148 -382h-977q2 -205 136 -341t327 -136zM502 1219
h-96v141h96v-141zM780 1219h-96v141h96v-141z" />
    <glyph glyph-name="igrave" unicode="&#xec;" horiz-adv-x="391" 
d="M236 1055v-1055h-76v1055h76zM-43 1423h98l170 -211h-82z" />
    <glyph glyph-name="iacute" unicode="&#xed;" horiz-adv-x="391" 
d="M236 1055v-1055h-76v1055h76zM420 1423l-187 -211h-83l172 211h98z" />
    <glyph glyph-name="icircumflex" unicode="&#xee;" horiz-adv-x="391" 
d="M236 1055v-1055h-76v1055h76zM-16 1190l166 203h92l166 -203h-93l-120 151l-119 -151h-92z" />
    <glyph glyph-name="idieresis" unicode="&#xef;" horiz-adv-x="391" 
d="M236 1055v-1055h-76v1055h76zM119 1219h-96v141h96v-141zM367 1219h-97v141h97v-141z" />
    <glyph glyph-name="eth" unicode="&#xf0;" horiz-adv-x="1148" 
d="M1010 501q0 194 -129 333t-311 139t-310 -139q-129 -139 -129 -333t129 -331t311 -137t311 137q128 137 128 331zM1085 500q1 -221 -151 -379t-363 -158t-363 158t-151 380q0 222 151 382q150 159 356 159t351 -145q-123 246 -362 434l-139 -104l-66 39l144 108
q-90 63 -175 101l68 49q86 -39 170 -103l141 107l66 -41l-148 -111q135 -111 232 -235q239 -311 239 -641z" />
    <glyph glyph-name="ntilde" unicode="&#xf1;" horiz-adv-x="1173" 
d="M1036 637v-637h-75v637q-1 176 -93 273q-92 98 -258 98t-276 -106t-109 -265v-637h-75v1055h75v-178q57 96 157 150t224 54q203 0 317 -118q113 -119 113 -326zM711 1225q-53 0 -124 44t-108 44q-57 -4 -82 -80h-63q14 76 55 114q41 37 94 37t123 -43t107 -43q59 0 82 80
h65q-16 -78 -56 -116t-93 -37z" />
    <glyph glyph-name="ograve" unicode="&#xf2;" horiz-adv-x="1165" 
d="M584 47q186 0 318 140t132 339t-132 341q-132 143 -318 143t-318 -142t-133 -342q1 -199 133 -339t318 -140zM57 525q0 228 155 392t373 164q219 1 373 -163t154 -392t-155 -390q-155 -161 -373 -161t-372 161q-155 161 -155 389zM346 1423h98l170 -209h-84z" />
    <glyph glyph-name="oacute" unicode="&#xf3;" horiz-adv-x="1165" 
d="M584 47q186 0 318 140t132 339t-132 341q-132 143 -318 143t-318 -142t-133 -342q1 -199 133 -339t318 -140zM57 525q0 228 155 392t373 164q219 1 373 -163t154 -392t-155 -390q-155 -161 -373 -161t-372 161q-155 161 -155 389zM819 1423l-184 -209h-84l170 209h98z
" />
    <glyph glyph-name="ocircumflex" unicode="&#xf4;" horiz-adv-x="1165" 
d="M584 47q186 0 318 140t132 339t-132 341q-132 143 -318 143t-318 -142t-133 -342q1 -199 133 -339t318 -140zM57 525q0 228 155 392t373 164q219 1 373 -163t154 -392t-155 -390q-155 -161 -373 -161t-372 161q-155 161 -155 389zM365 1206l165 203h93l165 -203h-92
l-121 152l-118 -152h-92z" />
    <glyph glyph-name="otilde" unicode="&#xf5;" horiz-adv-x="1165" 
d="M584 47q186 0 318 140t132 339t-132 341q-132 143 -318 143t-318 -142t-133 -342q1 -199 133 -339t318 -140zM57 525q0 228 155 392t373 164q219 1 373 -163t154 -392t-155 -390q-155 -161 -373 -161t-372 161q-155 161 -155 389zM683 1225q-52 0 -124 44t-108 44
q-57 -4 -82 -80h-64q16 76 56 114q39 37 93 37t124 -43t108 -43q55 0 82 80h63q-16 -78 -56 -116t-92 -37z" />
    <glyph glyph-name="odieresis" unicode="&#xf6;" horiz-adv-x="1165" 
d="M584 47q186 0 318 140t132 339t-132 341q-132 143 -318 143t-318 -142t-133 -342q1 -199 133 -339t318 -140zM57 525q0 228 155 392t373 164q219 1 373 -163t154 -392t-155 -390q-155 -161 -373 -161t-372 161q-155 161 -155 389zM492 1219h-97v141h97v-141zM768 1219
h-96v141h96v-141z" />
    <glyph glyph-name="divide" unicode="&#xf7;" 
d="M199 737v-190h-76v190h76z" />
    <glyph glyph-name="oslash" unicode="&#xf8;" horiz-adv-x="1165" 
d="M1034 512q0 184 -98 315l-651 -659q127 -121 306 -121t311 140q132 141 132 325zM581 1010q-183 0 -315 -142t-132 -330q0 -186 106 -319l651 660q-127 131 -310 131zM1112 511q0 -214 -155 -375t-365 -161t-359 142l-108 -111l-49 47l110 113q-129 156 -129 372t155 380
t368 164t362 -150l105 104l49 -47l-107 -108q123 -156 123 -370z" />
    <glyph glyph-name="ugrave" unicode="&#xf9;" horiz-adv-x="1173" 
d="M1028 1055v-1055h-76v174q-117 -199 -368 -199q-193 0 -318 125t-125 318v637h76v-637q1 -160 105 -263t264 -103t263 102q103 104 103 264v637h76zM371 1423h98l172 -209h-84z" />
    <glyph glyph-name="uacute" unicode="&#xfa;" horiz-adv-x="1173" 
d="M1028 1055v-1055h-76v174q-117 -199 -368 -199q-193 0 -318 125t-125 318v637h76v-637q1 -160 105 -263t264 -103t263 102q103 104 103 264v637h76zM813 1423l-184 -209h-86l172 209h98z" />
    <glyph glyph-name="ucircumflex" unicode="&#xfb;" horiz-adv-x="1173" 
d="M1028 1055v-1055h-76v174q-117 -199 -368 -199q-193 0 -318 125t-125 318v637h76v-637q1 -160 105 -263t264 -103t263 102q103 104 103 264v637h76zM379 1206l164 203h92l166 -203h-92l-119 152l-121 -152h-90z" />
    <glyph glyph-name="udieresis" unicode="&#xfc;" horiz-adv-x="1173" 
d="M1028 1055v-1055h-76v174q-117 -199 -368 -199q-193 0 -318 125t-125 318v637h76v-637q1 -160 105 -263t264 -103t263 102q103 104 103 264v637h76zM489 1219h-96v141h96v-141zM768 1219h-96v141h96v-141z" />
    <glyph glyph-name="yacute" unicode="&#xfd;" horiz-adv-x="911" 
d="M895 1055l-455 -1209q-113 -297 -409 -241v71q127 -18 209 27t129 170l49 129l-398 1053h82l355 -946l358 946h80zM702 1423l-184 -209h-84l170 209h98z" />
    <glyph glyph-name="thorn" unicode="&#xfe;" horiz-adv-x="1245" 
d="M1116 526q0 197 -132 337q-132 141 -318 141t-318 -140t-133 -338q0 -197 132 -336q133 -139 319 -139t318 139t132 336zM1192 526q0 -229 -155 -390t-371 -161q-145 0 -266 76q-120 76 -185 203v-723h-76v1890h76v-622q66 129 185 206q120 77 266 76q218 0 372 -163
t154 -392z" />
    <glyph glyph-name="ydieresis" unicode="&#xff;" horiz-adv-x="911" 
d="M895 1055l-455 -1209q-113 -297 -409 -241v71q127 -18 209 27t129 170l49 129l-398 1053h82l355 -946l358 946h80zM379 1219h-96v141h96v-141zM655 1219h-96v141h96v-141z" />
    <glyph glyph-name="dotlessi" unicode="&#x131;" horiz-adv-x="391" 
d="M236 1055v-1055h-76v1055h76z" />
    <glyph glyph-name="Lslash" unicode="&#x141;" horiz-adv-x="1165" 
d="M1114 76v-76h-893v641l-190 -113v88l190 115v690h76v-645l319 193v-90l-319 -193v-610h817z" />
    <glyph glyph-name="lslash" unicode="&#x142;" horiz-adv-x="514" 
d="M297 0h-76v641l-190 -113v88l190 115v690h76v-645l188 115v-90l-188 -113v-688z" />
    <glyph glyph-name="OE" unicode="&#x152;" horiz-adv-x="2447" 
d="M1395 720q1 278 -181 469t-443 191t-445 -194t-184 -469q0 -274 184 -470t443 -196t443 196q184 195 183 473zM1470 1346v-562h779v-77h-779v-631h867v-76h-942v395q-84 -188 -252 -304t-373 -116q-293 -1 -499 217q-205 218 -205 524t206 523q207 217 498 217
q207 0 374 -112t251 -300v377h942v-75h-867z" />
    <glyph glyph-name="oe" unicode="&#x153;" horiz-adv-x="2142" 
d="M1034 526q0 197 -132 338q-132 142 -317 142t-319 -142t-133 -338q0 -197 133 -336q132 -139 318 -139t318 139t132 336zM1560 1006q-166 0 -290 -115q-125 -115 -154 -287h887q-27 172 -152 287t-291 115zM1112 528q0 -205 133 -341t328 -136q315 0 409 277h82
q-53 -170 -180 -261t-306 -91t-315 100t-192 262q-55 -162 -187 -262t-300 -101q-217 0 -372 161t-155 390q0 228 155 392t372 163q168 0 302 -102t185 -266q55 164 189 266t303 102q225 0 377 -171t149 -382h-977z" />
    <glyph glyph-name="Scaron" unicode="&#x160;" horiz-adv-x="1220" 
d="M127 1079q0 171 132 275t356 104q223 0 347 -124t123 -296h-75q0 158 -110 252t-292 94t-294 -84t-112 -211t98 -195q97 -68 342 -119q245 -50 366 -135q120 -85 120 -265t-143 -291t-365 -111t-378 120q-154 120 -154 339h76q0 -184 130 -282t324 -98t314 87
q121 89 121 231q-1 142 -97 213t-346 122q-359 68 -445 221q-38 66 -38 153zM827 1772l-165 -203h-93l-166 203h93l120 -152l121 152h90z" />
    <glyph glyph-name="scaron" unicode="&#x161;" horiz-adv-x="1046" 
d="M570 -25q-216 0 -346 86t-156 246h75q27 -127 135 -193t290 -67q182 0 282 105q57 61 51 145q-2 96 -87 149t-279 82q-245 32 -321 90q-34 25 -61 71q-28 46 -30 106q0 117 106 201q105 84 287 85t294 -75t144 -220h-77q-68 223 -353 224q-141 0 -233 -62t-90 -150
q2 -89 81 -129q79 -41 219 -61t207 -38q173 -45 232 -140q35 -55 39 -131q4 -121 -74 -201q-119 -123 -335 -123zM766 1419l-166 -202h-92l-166 202h92l121 -151l121 151h90z" />
    <glyph glyph-name="Ydieresis" unicode="&#x178;" horiz-adv-x="1118" 
d="M598 0h-76v614l-510 807h90l457 -725h2l455 725h90l-508 -807v-614zM473 1591h-96v140h96v-140zM750 1591h-97v140h97v-140z" />
    <glyph glyph-name="Zcaron" unicode="&#x17d;" horiz-adv-x="1118" 
d="M1102 76v-76h-1075v76l979 1270h-955v75h1051v-78l-979 -1267h979zM786 1767l-165 -202h-93l-166 202h93l120 -151l121 151h90z" />
    <glyph glyph-name="zcaron" unicode="&#x17e;" horiz-adv-x="894" 
d="M883 76v-76h-863v76l742 903h-719v76h817v-76l-741 -903h764zM664 1366l-166 -203h-92l-166 203h92l121 -152l120 152h91z" />
    <glyph glyph-name="florin" unicode="&#x192;" horiz-adv-x="839" 
d="M696 932v-74h-200l-107 -487q-37 -188 -164 -252q-104 -53 -219 0v76q111 -49 184 -9q90 41 125 201l101 471h-185v74h201l23 106q43 201 166 260q100 49 202 -6v-78q-92 55 -170 15q-88 -41 -123 -205l-20 -92h186z" />
    <glyph glyph-name="circumflex" unicode="&#x2c6;" horiz-adv-x="808" 
d="M618 1208h-96l-116 148l-115 -148h-96l165 203h93z" />
    <glyph glyph-name="caron" unicode="&#x2c7;" horiz-adv-x="710" 
d="M567 1411l-166 -203h-92l-166 203h93l120 -151l121 151h90z" />
    <glyph glyph-name="breve" unicode="&#x2d8;" horiz-adv-x="821" 
d="M413 1280q151 0 193 141h72q-22 -98 -94 -155q-72 -58 -173 -58t-173 58t-95 155h72q47 -141 198 -141z" />
    <glyph glyph-name="dotaccent" unicode="&#x2d9;" horiz-adv-x="382" 
d="M240 1219h-97v141h97v-141z" />
    <glyph glyph-name="ring" unicode="&#x2da;" horiz-adv-x="624" 
d="M311 1249q45 0 78 33t33 80t-33 80t-78 33t-77 -33t-32 -80t32 -80t77 -33zM311 1532q70 0 120 -50t50 -120t-50 -119t-120 -49q-71 0 -119 49t-49 119q0 70 49 120t119 50z" />
    <glyph glyph-name="ogonek" unicode="&#x2db;" horiz-adv-x="567" 
d="M424 -268v-58q-80 -44 -159 -34t-107 69q-33 51 -2 139t127 152h82q-90 -61 -129 -134t-11 -126q18 -35 77 -37t122 29z" />
    <glyph glyph-name="tilde" unicode="&#x2dc;" horiz-adv-x="808" 
d="M520 1225q-53 0 -124 44t-107 44q-57 -4 -82 -80h-64q13 76 55 114q42 37 95 37t123 -43t106 -43q59 0 82 80h66q-16 -78 -56 -116t-94 -37z" />
    <glyph glyph-name="hungarumlaut" unicode="&#x2dd;" horiz-adv-x="714" 
d="M379 1423l-156 -211h-80l140 211h96zM571 1423l-155 -211h-80l137 211h98z" />
    <glyph glyph-name="Delta" unicode="&#x394;" 
d="M199 737v-190h-76v190h76z" />
    <glyph glyph-name="Omega" unicode="&#x3a9;" 
d="M199 737v-190h-76v190h76z" />
    <glyph glyph-name="pi" unicode="&#x3c0;" 
d="M199 737v-190h-76v190h76z" />
    <glyph glyph-name="endash" unicode="&#x2013;" horiz-adv-x="1087" 
d="M1001 604v-76h-911v76h911z" />
    <glyph glyph-name="emdash" unicode="&#x2014;" horiz-adv-x="1996" 
d="M1911 604v-76h-1821v76h1821z" />
    <glyph glyph-name="quoteleft" unicode="&#x2018;" horiz-adv-x="305" 
d="M154 1032h-74v225q0 80 48 125t114 45v-69q-88 -4 -88 -101v-225z" />
    <glyph glyph-name="quoteright" unicode="&#x2019;" horiz-adv-x="303" 
d="M154 1421h73v-225q0 -80 -48 -125t-113 -45v70q88 4 88 100v225z" />
    <glyph glyph-name="quotesinglbase" unicode="&#x201a;" horiz-adv-x="303" 
d="M143 190h74v-225q0 -80 -48 -125t-114 -45v70q88 4 88 100v225z" />
    <glyph glyph-name="quotedblleft" unicode="&#x201c;" horiz-adv-x="542" 
d="M154 1032h-74v225q0 80 48 125t114 45v-69q-88 -4 -88 -101v-225zM391 1032h-74v225q1 80 49 125t113 45v-69q-88 -4 -88 -101v-225z" />
    <glyph glyph-name="quotedblright" unicode="&#x201d;" horiz-adv-x="540" 
d="M154 1421h73v-225q0 -80 -48 -125t-113 -45v70q88 4 88 100v225zM391 1421h74v-225q0 -80 -48 -125t-114 -45v70q88 4 88 100v225z" />
    <glyph glyph-name="quotedblbase" unicode="&#x201e;" horiz-adv-x="540" 
d="M143 190h74v-225q0 -80 -48 -125t-114 -45v70q88 4 88 100v225zM381 190h74v-225q0 -80 -48 -125t-114 -45v70q88 4 88 100v225z" />
    <glyph glyph-name="dagger" unicode="&#x2020;" horiz-adv-x="677" 
d="M631 1081h-252v-626h-76v626h-250v72h250v268h76v-268h252v-72z" />
    <glyph glyph-name="daggerdbl" unicode="&#x2021;" horiz-adv-x="677" 
d="M379 1081v-282h252v-72h-252v-268h-76v268h-250v72h250v282h-250v72h250v268h76v-268h252v-72h-252z" />
    <glyph glyph-name="bullet" unicode="&#x2022;" horiz-adv-x="641" 
d="M321 528q-91 0 -155 64t-64 154q0 92 64 155t154 63t154 -64t65 -154t-63 -154t-155 -64z" />
    <glyph glyph-name="ellipsis" unicode="&#x2026;" horiz-adv-x="1488" 
d="M201 190v-190h-76v190h76zM784 190v-190h-75v190h75zM1368 190v-190h-76v190h76z" />
    <glyph glyph-name="perthousand" unicode="&#x2030;" horiz-adv-x="2158" 
d="M1057 104q98 0 168 70t69 170q0 100 -69 170q-70 70 -168 70t-169 -70t-71 -170t71 -170t169 -70zM1790 104q98 0 168 70t70 170t-70 170t-168 70t-168 -70t-70 -170t70 -170t168 -70zM131 1078q0 -100 70 -170t169 -70t169 70t69 169q0 100 -69 171q-70 71 -168 71
t-169 -71t-71 -170zM1056 659q130 0 222 -92t92 -223t-92 -222t-222 -91t-222 91t-93 222q1 131 93 223t222 92zM1791 659q130 0 222 -92t92 -223t-92 -222t-222 -91t-222 91t-92 222t92 223t222 92zM248 -25l833 1446h82l-833 -1446h-82zM55 1077q1 131 93 223t222 93
q130 -1 222 -93t92 -223t-92 -222t-222 -91t-223 91q-92 91 -92 222z" />
    <glyph glyph-name="guilsinglleft" unicode="&#x2039;" horiz-adv-x="344" 
d="M307 784l-211 -172l211 -172v-98l-266 221v99l266 221v-99z" />
    <glyph glyph-name="guilsinglright" unicode="&#x203a;" horiz-adv-x="344" 
d="M307 662v-99l-266 -221v98l211 172l-211 172v99z" />
    <glyph glyph-name="Euro" unicode="&#x20ac;" horiz-adv-x="1353" 
d="M805 0q-213 0 -380 137t-222 350h-172v72h157q-8 65 -8 93t4 77h-153v74h166q47 221 217 366t391 146q160 0 293 -75t215 -204l-37 -75q-72 131 -197 207t-274 77q-189 0 -337 -126t-194 -316h924l-35 -74h-901q-6 -37 -6 -71t8 -99h817l-37 -72h-763q51 -182 196 -300
t328 -117q127 0 239 59t189 164h88q-84 -135 -221 -214t-295 -79z" />
    <glyph glyph-name="trademark" unicode="&#x2122;" horiz-adv-x="1804" 
d="M37 1421h649v-73h-287v-820h-75v820h-287v73zM1688 1421v-893h-76v713h-4l-314 -713h-86l-311 713h-2v-713h-78v893h84l350 -798h2l353 798h82z" />
    <glyph glyph-name="partialdiff" unicode="&#x2202;" 
d="M199 737v-190h-76v190h76z" />
    <glyph glyph-name="product" unicode="&#x220f;" 
d="M199 737v-190h-76v190h76z" />
    <glyph glyph-name="summation" unicode="&#x2211;" 
d="M199 737v-190h-76v190h76z" />
    <glyph glyph-name="fraction" unicode="&#x2215;" 
d="M199 737v-190h-76v190h76z" />
    <glyph glyph-name="radical" unicode="&#x221a;" 
d="M199 737v-190h-76v190h76z" />
    <glyph glyph-name="integral" unicode="&#x222b;" 
d="M199 737v-190h-76v190h76z" />
    <glyph glyph-name="approxequal" unicode="&#x2248;" 
d="M199 737v-190h-76v190h76z" />
    <glyph glyph-name="lessequal" unicode="&#x2264;" 
d="M199 737v-190h-76v190h76z" />
    <glyph glyph-name="greaterequal" unicode="&#x2265;" 
d="M199 737v-190h-76v190h76z" />
    <glyph glyph-name="lozenge" unicode="&#x25ca;" 
d="M199 737v-190h-76v190h76z" />
    <glyph glyph-name="apple" unicode="&#xf8ff;" horiz-adv-x="1851" 
d="M1559 283q-86 53 -177 86q-76 -199 -208 -306q229 46 385 220zM1090 63q158 86 247 320q-109 33 -247 39v-359zM1718 688h-276q-2 -137 -43 -274q94 -31 190 -95q123 160 129 369zM1090 688v-217q143 -6 262 -43q41 127 43 260h-305zM1090 735h305q-2 131 -43 258
q-125 -35 -262 -41v-217zM1399 1008q41 -133 43 -273h276q-6 205 -129 369q-92 -61 -190 -96zM1090 999q143 10 247 41q-88 229 -247 320v-361zM1174 1360q133 -106 208 -305q90 33 177 86q-156 174 -385 219zM793 1421h188v-256h-188q-197 0 -318 -132t-121 -322
q0 -191 121 -323t318 -132h188v-256h-188q-313 0 -511 208t-198 503t198 503t511 207zM1767 711q0 -207 -104 -371t-263 -248t-335 -90l-25 -2v1423l25 -2q176 -6 335 -90q159 -85 263 -249t104 -371z" />
    <glyph glyph-name="CR" horiz-adv-x="604" 
 />
    </font>
</defs>
</svg>
